<?xml version="1.0" encoding="UTF-8"?>
<svg width="116px" height="37px" viewBox="0 0 116 37" version="1.1" xmlns="http://www.w3.org/2000/svg" xmlns:xlink="http://www.w3.org/1999/xlink">
    <title>Group</title>
    <g id="Page-1" stroke="none" stroke-width="1" fill="none" fill-rule="evenodd">
        <g id="Home" transform="translate(-83.000000, -47.000000)">
            <g id="Group" transform="translate(86.000000, 50.000000)">
                <path d="M75.7775731,3.96708082 C81.0076807,3.07128992 83.5266547,5.00345812 83.334495,9.76358539 C80.5096747,11.8889587 79.0972646,13.6629646 79.0972646,15.0856029 C79.0972646,16.5082413 80.5096747,19.2580019 83.334495,23.3348848 L72.9716804,27.78157 C68.3112027,25.9877053 65.2344164,23.8230349 63.7413215,21.2875588 C61.5016791,17.4843448 62.134105,14.1221836 64.0864734,9.76358539 C66.0388417,5.40498719 67.9324116,5.31076715 75.7775731,3.96708082 Z" id="Rectangle" fill="#000000"></path>
                <path d="M44.6757679,31.1604096 C47.8098777,31.1604096 50.6277012,30.4861281 53.1292384,29.1375653 C55.6307755,27.7890024 57.6003766,25.9311419 59.0380417,23.5639837 C60.4757067,21.1968256 61.1945392,18.5355659 61.1945392,15.5802048 C61.1945392,12.6248437 60.4757067,9.96358399 59.0380417,7.59642581 C57.6003766,5.22926763 55.6307755,3.37140711 53.1292384,2.02284427 C50.6277012,0.674281422 47.8098777,0 44.6757679,0 C41.5416581,0 38.7166463,0.674281422 36.2007325,2.02284427 C33.6848187,3.37140711 31.7152176,5.22926763 30.2919292,7.59642581 C28.8686408,9.96358399 28.1569966,12.6248437 28.1569966,15.5802048 C28.1569966,18.5355659 28.8686408,21.1968256 30.2919292,23.5639837 C31.7152176,25.9311419 33.6848187,27.7890024 36.2007325,29.1375653 C38.7166463,30.4861281 41.5416581,31.1604096 44.6757679,31.1604096 Z M44.6757679,25.2209945 C42.8930633,25.2209945 41.2828784,24.8121217 39.8452134,23.9943761 C38.4075483,23.1766306 37.2789813,22.0360907 36.4595122,20.5727566 C35.6400431,19.1094224 35.2303086,17.4452385 35.2303086,15.5802048 C35.2303086,13.7151711 35.6400431,12.0509871 36.4595122,10.587653 C37.2789813,9.12431882 38.4075483,7.98377897 39.8452134,7.16603341 C41.2828784,6.34828786 42.8930633,5.93941508 44.6757679,5.93941508 C46.4584726,5.93941508 48.0686574,6.34828786 49.5063225,7.16603341 C50.9439875,7.98377897 52.0725546,9.12431882 52.8920236,10.587653 C53.7114927,12.0509871 54.1212272,13.7151711 54.1212272,15.5802048 C54.1212272,17.4452385 53.7114927,19.1094224 52.8920236,20.5727566 C52.0725546,22.0360907 50.9439875,23.1766306 49.5063225,23.9943761 C48.0686574,24.8121217 46.4584726,25.2209945 44.6757679,25.2209945 Z" id="O" stroke="#000000" stroke-width="5" fill="#000000" fill-rule="nonzero"></path>
                <polygon id="T" stroke="#000000" stroke-width="5" fill="#000000" fill-rule="nonzero" points="16.867118 30.7849829 16.867118 6.41443198 26.6552901 6.41443198 26.6552901 0.750853242 0 0.750853242 0 6.41443198 9.7881721 6.41443198 9.7881721 30.7849829"></polygon>
                <path d="M93.4812287,31.1604096 C96.6153385,31.1604096 99.4331619,30.4861281 101.934699,29.1375653 C104.436236,27.7890024 106.405837,25.9311419 107.843502,23.5639837 C109.281167,21.1968256 110,18.5355659 110,15.5802048 C110,12.6248437 109.281167,9.96358399 107.843502,7.59642581 C106.405837,5.22926763 104.436236,3.37140711 101.934699,2.02284427 C99.4331619,0.674281422 96.6153385,0 93.4812287,0 C90.3471189,0 87.5221071,0.674281422 85.0061932,2.02284427 C82.4902794,3.37140711 80.5206783,5.22926763 79.0973899,7.59642581 C77.6741015,9.96358399 76.9624573,12.6248437 76.9624573,15.5802048 C76.9624573,18.5355659 77.6741015,21.1968256 79.0973899,23.5639837 C80.5206783,25.9311419 82.4902794,27.7890024 85.0061932,29.1375653 C87.5221071,30.4861281 90.3471189,31.1604096 93.4812287,31.1604096 Z M93.4812287,25.2209945 C91.698524,25.2209945 90.0883392,24.8121217 88.6506741,23.9943761 C87.2130091,23.1766306 86.084442,22.0360907 85.264973,20.5727566 C84.4455039,19.1094224 84.0357693,17.4452385 84.0357693,15.5802048 C84.0357693,13.7151711 84.4455039,12.0509871 85.264973,10.587653 C86.084442,9.12431882 87.2130091,7.98377897 88.6506741,7.16603341 C90.0883392,6.34828786 91.698524,5.93941508 93.4812287,5.93941508 C95.2639333,5.93941508 96.8741182,6.34828786 98.3117832,7.16603341 C99.7494483,7.98377897 100.878015,9.12431882 101.697484,10.587653 C102.516953,12.0509871 102.926688,13.7151711 102.926688,15.5802048 C102.926688,17.4452385 102.516953,19.1094224 101.697484,20.5727566 C100.878015,22.0360907 99.7494483,23.1766306 98.3117832,23.9943761 C96.8741182,24.8121217 95.2639333,25.2209945 93.4812287,25.2209945 Z" id="O" stroke="#000000" stroke-width="5" fill="#000000" fill-rule="nonzero"></path>
                <path d="M72.8777258,31.1604096 C75.4689938,31.1604096 77.8182202,30.7013243 79.9254052,29.7831539 C82.0325901,28.8649834 83.7980694,27.530767 85.221843,25.7805046 L85.221843,25.7805046 L80.7796693,21.6487376 C78.7579108,24.0302422 76.2520692,25.2209945 73.2621447,25.2209945 C71.411239,25.2209945 69.7596616,24.8121217 68.3074125,23.9943761 C66.8551634,23.1766306 65.7232634,22.0360907 64.9117124,20.5727566 C64.1001615,19.1094224 63.694386,17.4452385 63.694386,15.5802048 C63.694386,13.7151711 64.1001615,12.0509871 64.9117124,10.587653 C65.7232634,9.12431882 66.8551634,7.98377897 68.3074125,7.16603341 C69.7596616,6.34828786 71.411239,5.93941508 73.2621447,5.93941508 C76.2520692,5.93941508 78.7579108,7.11582097 80.7796693,9.46863274 L80.7796693,9.46863274 L85.221843,5.33686573 C83.7980694,3.61529614 82.039709,2.29542612 79.9467618,1.37725567 C77.8538146,0.459085224 75.511707,0 72.920439,0 C69.845088,0 67.0758483,0.667108216 64.61272,2.00132465 C62.1495916,3.33554108 60.2132595,5.18622839 58.8037236,7.55338657 C57.3941877,9.92054476 56.6894198,12.5961508 56.6894198,15.5802048 C56.6894198,18.5642587 57.3941877,21.2398648 58.8037236,23.607023 C60.2132595,25.9741812 62.1495916,27.8248685 64.61272,29.1590849 C67.0758483,30.4933013 69.8308502,31.1604096 72.8777258,31.1604096 Z" id="C" stroke="#FFFFFF" stroke-width="5" fill="#FFFFFF" fill-rule="nonzero"></path>
            </g>
        </g>
    </g>
</svg>